<?xml version="1.0" encoding="UTF-8"?>
<svg width="531" height="230" version="1.1" viewBox="0 0 531.5 230.3" xml:space="preserve" xmlns="http://www.w3.org/2000/svg" xmlns:cc="http://creativecommons.org/ns#" xmlns:dc="http://purl.org/dc/elements/1.1/" xmlns:rdf="http://www.w3.org/1999/02/22-rdf-syntax-ns#"><metadata><rdf:RDF><cc:Work rdf:about=""><dc:format>image/svg+xml</dc:format><dc:type rdf:resource="http://purl.org/dc/dcmitype/StillImage"/><dc:title/></cc:Work></rdf:RDF></metadata><g transform="matrix(1.25 0 0 -1.25 0 230)" stroke-width="1.248"><path transform="matrix(.8011 0 0 -.8011 -.09238 184)" d="m354.6 58.67c-2.671 0-4.867 2.197-4.867 4.918 0 2.671 2.196 4.807 4.867 4.807 2.734 0 4.869-2.135 4.869-4.807 0-2.721-2.135-4.918-4.869-4.918zm-14.8 0.5c-2.671 0-4.867 2.184-4.867 4.918 0 2.609 2.196 4.805 4.867 4.805 2.734 0 4.869-2.196 4.869-4.805 0-2.721-2.135-4.918-4.869-4.918zm-111 1.572v42.07h8.189v-15.85h7.539c8.339 0 13.86-5.453 13.86-13.11 0-7.59-5.542-13.11-13.86-13.11h-15.73zm89.99 4.168v4.094c0 2.609-1.425 4.631-4.508 4.631h-1.484v7.004h5.279v13.61c0 5.63 3.558 9.014 9.25 9.014 2.322 0 3.744-0.4151 4.457-0.7109v-6.529c-0.4119 0.1173-1.484 0.2383-2.434 0.2383-2.259 0-3.445-0.8363-3.445-3.383v-12.22h5.879v-7.004h-5.855v-8.613l-7.139-0.125zm-81.74 2.934h6.465c4.094 0 6.592 2.31 6.592 6.055 0 3.62-2.497 5.992-6.592 5.992h-6.465v-12.05zm36.4 5.002c-7.789 0-12.01 5.045-12.48 9.613l7.004 1.484c0.2372-2.547 2.135-4.742 5.58-4.742 3.32 0 4.918 1.721 4.918 3.793 0 1.011-0.537 1.836-2.197 2.086l-7.178 1.066 0.00976 0.00586c-4.868 0.7115-8.725 3.62-8.725 8.838 0 4.569 3.794 8.777 10.02 8.777 4.332 0 7.114-2.023 8.6-4.332 0 1.123 0.1216 2.723 0.2988 3.494h7.238c-0.1798-1.011-0.3555-3.083-0.3555-4.631v-14.36c0-5.879-3.47-11.1-12.73-11.1zm34.39 0.2168c-2.497 0-6.527 0.7111-8.312 4.568v-4.332h-7.652v29.21h7.889v-13.36c0-6.291 3.509-8.25 7.541-8.25 0.7115 0 1.481 0.05907 2.371 0.2363v-0.003906-7.953c-0.5892-0.05992-1.183-0.1191-1.836-0.1191zm183.5 0c-2.497 0-6.529 0.7111-8.314 4.568v-4.332h-7.652v29.21h7.891v-13.36c0-6.291 3.507-8.25 7.539-8.25 0.7115 0 1.481 0.05907 2.371 0.2363v-0.003906-7.953c-0.5892-0.05992-1.181-0.1191-1.834-0.1191zm-140.6 0.08789v30.92c0 2.147-0.8997 3.445-3.271 3.445-1.123 0-1.898-0.1763-2.434-0.2949v6.59c0.4244 0.1773 2.133 0.6543 4.455 0.6543 5.642 0 9.139-3.971 9.139-9.613v-31.71h-7.889zm25.3 0 11.92 29.21h7.891 0.03711l11.3-29.21h-8.301l-6.941 19.6-7.24-19.6h-8.662zm46.07 0c-8.763 0-15.35 6.466-15.35 15.48 0 8.95 6.628 15.48 15.35 15.48 8.763 0 15.35-6.516 15.35-15.48 0-9.013-6.578-15.48-15.35-15.48zm33.7 0c-8.763 0-15.35 6.466-15.35 15.48 0 8.95 6.628 15.48 15.35 15.48 8.763 0 15.35-6.516 15.35-15.48 0-9.013-6.578-15.48-15.35-15.48zm-119.9 0.498v29.21h7.889v-29.21h-7.889zm86.21 6.68c3.857 0 7.414 2.783 7.414 8.301h0.02539c0 5.517-3.557 8.301-7.439 8.301-3.857 0-7.416-2.846-7.416-8.301 0-5.517 3.559-8.301 7.416-8.301zm33.7 0c3.857 0 7.414 2.783 7.414 8.301h0.02539c0 5.517-3.557 8.301-7.439 8.301-3.857 0-7.416-2.846-7.416-8.301 0-5.517 3.559-8.301 7.416-8.301zm-177.3 9.486v1.311 0.001953c0 5.168-3.083 6.766-6.416 6.766-2.549 0-3.795-1.66-3.795-3.383 0-2.259 1.609-3.385 3.619-3.682l6.592-1.014zm72.58 38.51c-2.671 0-4.869 2.184-4.869 4.918 0 2.609 2.198 4.807 4.869 4.807 2.734 0 4.867-2.198 4.867-4.807 0-2.721-2.133-4.918-4.867-4.918zm-103 0.6797v16.73c-0.8364-1.548-3.209-3.621-8.252-3.621-8.226 0-13.98 6.69-13.98 15.23 0 8.825 5.929 15.36 14.23 15.36 3.92 0 6.891-1.774 8.189-4.096 0 1.361 0.1795 2.79 0.2969 3.383h7.539c-0.1198-1.186-0.2363-3.319-0.2363-5.279h-0.00976v-37.7h-7.777zm58.09 0.918v42.07h14.98c12.01 0 20.85-7.741 20.85-20.97 0-13.33-8.737-21.1-20.72-21.1h-15.11zm8.141 7.641h6.59c6.916 0 12.61 4.343 12.61 13.48 0 9.088-5.729 13.36-12.61 13.36h-6.529l-0.06054-26.84zm-39.98 4.455c-7.465 0-14.36 6.041-14.36 15.35 0 9.849 7.091 15.61 15.11 15.61 7.115 0 11.75-4.221 13.23-9.264h0.1172l-6.592-1.959c-0.9487 2.609-2.958 4.443-6.641 4.443-3.907 0-7.174-2.783-7.354-6.641h20.85c0-0.1124 0.1191-1.305 0.1191-2.434 0-9.35-5.468-15.11-14.48-15.11zm99.86 0c-7.465 0-14.36 6.041-14.36 15.35 0 9.849 7.091 15.61 15.11 15.61 7.115 0 11.75-4.221 13.23-9.264h0.1172l-6.592-1.959c-0.9487 2.609-2.958 4.443-6.641 4.443-3.907 0-7.174-2.783-7.354-6.641h20.85c0-0.1124 0.1191-1.305 0.1191-2.434 0-9.35-5.468-15.11-14.48-15.11zm53.68 0c-7.465 0-14.36 6.041-14.36 15.35 0 9.849 7.089 15.61 15.1 15.61 7.115 0 11.75-4.221 13.23-9.264h0.1172l-6.592-1.959c-0.9487 2.609-2.958 4.443-6.641 4.443-3.907 0-7.172-2.783-7.352-6.641h20.85c0-0.1124 0.1211-1.305 0.1211-2.434 0-9.35-5.468-15.11-14.48-15.11zm36.04 0.01367c-3.146 0-6.641 1.372-8.426 4.393v-3.619h-7.652v29.21h7.891l0.02343 0.1133v-16.85c1e-5 -3.37 2.023-5.992 5.469-5.992 3.795 0 5.393 2.546 5.393 5.816v16.98h7.863v-18.47c0-6.404-3.32-11.57-10.56-11.57zm-53.71 0.5606c-2.497 0-6.529 0.7111-8.314 4.568v-4.33h-7.652v29.21h7.891v-13.36c1e-5 -6.291 3.507-8.252 7.539-8.252 0.7115 0 1.481 0.05907 2.371 0.2363v-0.00391-7.951c-0.5892-0.05992-1.181-0.1211-1.834-0.1211zm-63.08 0.2129v29.21h7.889v-29.21h-7.889zm-72.69 5.605c4.506 0 6.409 2.845 6.529 5.754h-13.11c0.2496-2.671 2.484-5.754 6.578-5.754zm99.86 0c4.506 0 6.409 2.845 6.529 5.754h-13.11c0.2497-2.671 2.484-5.754 6.578-5.754zm53.68 0c4.506 0 6.408 2.845 6.527 5.754h-13.11c0.2497-2.671 2.484-5.754 6.578-5.754zm-187 0.748c4.032 0 7.178 2.909 7.178 8.127 0 5.28-3.146 8.363-7.178 8.363v-0.01367c-4.157 0-7.24-3.082-7.24-8.287 0-5.218 3.208-8.189 7.24-8.189z"/><path transform="matrix(.8011 0 0 -.8011 -.09238 184)" d="m116.9 26.18-7.752 0.6367c-0.9612-0.08239-2.003 0.2514-3.033 0.1641-1.997-0.171-4.346 0.124-6.643 0.4785-0.5004 0.1074-1.337 0.2391-2.066 0.3242-1.398 0.548-3.246 0.3953-4.656 0.9258-0.518 0.0749-1.039 0.149-1.561 0.2227-1.835 0.7739-3.806 1.675-5.629 2.459-0.6866 0.3008-1.354 0.3172-2.035 0.623-1.186 0.5368-2.547 1.062-3.758 1.598-2.484 1.086-5.367 1.635-7.564 2.934-3.233 1.91-6.467 3.82-9.562 5.742-1.535 0.9487-3.294 1.894-4.617 3.045-0.6192 0.5368-1.096 1.515-1.699 2.098-2.022 1.96-3.582 4.182-5.566 6.18l-0.9492 1.26c-1.498 1.485-2.658 3.121-3.994 4.693-0.5992 0.7115-1.228 1.394-1.898 2.061l-0.7246 0.9688c-0.3046 0.2946-0.6753 0.4818-0.9512 0.7988-0.3233 0.3695-0.5696 0.8761-0.8105 1.311-0.6241 1.148-1.465 2.19-2.109 3.357-0.6491 1.198-1.718 2.207-2.373 3.396-0.8114 1.473-1.591 2.907-2.371 4.393-0.4744 0.9113-1.136 1.794-1.611 2.697-0.6504 1.248-1.2 2.472-1.859 3.721-0.6241 1.173-1.49 2.365-2.01 3.607-0.01498 0.201-0.02994 0.4032-0.04492 0.6055-0.1236 0.6366-0.2657 1.325-0.4492 1.984-0.3882 1.386-0.9695 2.945-1.168 4.418 0.03745 0.2596 0.07513 0.5216 0.1113 0.7812-0.08239 0.8863 0.2421 1.61 0.08984 2.51-0.2434 1.448 0.1076 3.108-0.06836 4.668-0.387 3.445-0.1805 7.379-0.6523 10.86 0.01123 0.377 0.01861 0.7505 0.02734 1.125-0.2596 1.872-0.09108 3.721-0.2559 5.693-0.03745 0.4619 0.1655 1.226 0.2891 1.561 0.392 1.061 0.2118 2.429 0.5352 3.307 0.1161 0.3121 0.5409 2.144 0.5371 2.385-0.0062 0.6242 0.177 1.828 0.418 2.471 0.2247 1.436 0.4486 2.859 0.6758 4.295 0.6366 4.481 1.523 8.077 2.896 11.48 0.1773 0.6117 0.352 1.23 0.5293 1.848 0.8988 2.072 1.53 4.257 2.521 6.092 0.1773 0.3296 0.163 0.6052 0.334 0.9473 0.1835 0.367 0.5014 0.8445 0.6387 1.24-0.0012 0.1336-6e-3 0.2656-0.0098 0.4004 0.1086 0.2759 0.3904 0.5878 0.5215 0.8574 0.1298 0.4431 0.2588 0.8903 0.3887 1.336 0.553 1.123 1.087 2.436 1.637 3.557 0.5118 1.036 0.7551 2.057 1.297 3.008 0.9487 1.673 2.252 3.147 3.445 4.57 0.1311 0.1573 0.4102 0.2998 0.5312 0.457 0.4219 0.5505 0.6576 1.099 1.096 1.635 0.2634 0.3246 1.097 0.9755 1.238 1.223-0.01123 0.0911-0.01931 0.1784-0.0293 0.2695 0.2933 0.6079 0.9452 1.01 1.336 1.473 0.04119 0.1273 0.0799 0.2574 0.1211 0.3848 0.1111 0.1772 0.3228 0.2686 0.4551 0.3984 0.1236 0.2497 0.2475 0.4989 0.3711 0.7461 0.146 0.0911 0.2922 0.1784 0.4395 0.2695 0.01748 0.1311 0.03596 0.2608 0.05469 0.3906 0.07864 0.1136 0.3466 0.1059 0.4277 0.207 0.1311 0.161 0.079 0.3596 0.2051 0.502 0.6741 0.7864 1.553 1.558 2.197 2.41 0.2384 0.3171 0.3346 0.6902 0.6055 0.9785 0.156 0.1685 0.4636 0.1004 0.6309 0.2402-0.362 0.377 0.5766 0.9116 0.6777 1.035 0.09612 0.2085 0.1942 0.4146 0.2891 0.623 0.1273 0.1485 0.3009 0.0479 0.4844 0.1328 0.1361 0.1785 0.2721 0.3581 0.4082 0.5391 0.3857 0.3008 0.9056 0.4483 1.299 0.7441 1.236 0.9237 2.423 1.971 3.783 2.723l0.9023 0.7344c0.6741 0.3745 1.25 0.9035 1.908 1.262 0.1311 0.0736 0.2994 0.0525 0.418 0.1387 0.9986 0.724 1.997 1.433 2.971 2.172 0.3882 0.2934 0.7668 0.7487 1.201 0.9609 0.3233 0.1585 0.6917 0.1241 1.031 0.2539 0.8239 0.3096 1.604 0.8583 2.422 1.182 0.2846 0.1136 0.6208 0.0215 0.8867 0.1426 1.286 0.5867 2.516 1.356 3.744 1.996 0.7739 0.3982 1.618 0.5326 2.398 0.9258 0.2746 0.1361 0.478 0.4832 0.7539 0.623 1.248 0.6329 2.66 1.052 3.895 1.711 0.4094 0.221 0.7905 0.6593 1.246 0.8203 0.2022 0.0162 0.4032 0.0319 0.6055 0.0469 0.4182 0.1648 0.8409 0.6181 1.244 0.8203 0.6004 0.3021 1.164 0.5054 1.773 0.8125 0.206 0.1049 0.5087 0.3591 0.7246 0.4277 0.1548 0 0.312-5.5e-4 0.4668 2e-3 0.2734 0.1211 0.5252 0.4295 0.8086 0.5469 0.3383 0.1423 0.6931 0.0172 1.08 0.1133 0.2659 0.0662 0.5983 0.3228 0.8555 0.4102 0.7115 0.2422 1.404 0.23 2.123 0.4297 0.3108 0.0874 0.6773 0.3289 0.9844 0.3926 0.2197-9e-3 0.4405-0.0186 0.6602-0.0274 0.3995 0.0936 0.8428 0.4597 1.273 0.5508 0.176-2e-3 0.354-7e-3 0.5312-0.01 0.1897 0.0749 0.5628 0.3243 0.7812 0.3555 0.1273-0.0412 0.2548-0.0799 0.3809-0.1211 0.2884 0.0474 0.6638 0.3544 0.9297 0.4668 0.4606 0.196 1.069 0.3287 1.523 0.4473 0.7115 0.1897 1.508-0.1179 2.322 2e-3 0.5617 0.0824 1.386 0.0596 2.01 0.1133 0.3258-0.0449 0.652-0.0925 0.9766-0.1387 1.086 0.1261 2.576 0.3206 3.756 0.2656 0.2884-0.015 0.1099-0.2594 0.3633-0.252 0.1498 5e-3 0.3621 0.2268 0.502 0.2617l1.193-0.0371c0.0986 0.0736 0.1983 0.1485 0.2969 0.2246 0.3932-0.035 0.7884-0.0686 1.182-0.1035 0.8114 0.1074 1.62 0.2135 2.434 0.3184 0.578 0.0787 1.124-0.189 1.773-0.1191 0.4744 0.0524 1.09 0.391 1.572 0.3086 0.9362-0.1623 2.222 0.048 3.146 0.1504 0.2634 0.0312 0.5963-0.0736 0.791-0.0449 0.0612-0.1273 0.127-0.2954 0.2031-0.4277-2e-3 -0.0212-5e-3 -0.0445-8e-3 -0.0644 0.2696 0.0799 0.6392 0.4061 0.8164 0.6133 1.823-0.1848 3.534 0.6177 5.182-4e-3 0.387-0.146 1.214-0.1872 1.473-0.4082 0.6728-0.0649 0.9512-0.1092 1.117-0.5586 0.4119-0.0574 0.8263-0.1164 1.238-0.1738 0.0537 0.0574 0.1045 0.1178 0.1582 0.1777 0.9237-0.1972 1.846-0.396 2.771-0.5957 2.359-0.4619 5.204-0.7498 7.227-1.486 0.3246-0.1223 1.951-0.5254 2.186-0.5117 0.2035 0.0125 0.6967 0.0408 0.9863-0.0703 0.4157-0.161 1.06-0.3108 1.398-0.4668 0.216-0.0312 0.4319-0.0606 0.6504-0.0918-6e-3 -0.0425-0.0133-0.0872-0.0195-0.1309l0.252-0.1016c0.171-0.0312 0.1692 0.1357 0.2891 0.1582 0.156 0.0312 0.9666-0.1337 0.9766-0.1387 1.173-0.4606 2.356-1.07 3.496-1.561 0.9737-0.4182 1.764-0.4173 2.596-0.9004 0.6379-0.3757 1.062-0.9287 1.598-1.359 0.8863-0.7153 1.944-1.16 2.783-1.924 0.1086-0.171 0.2188-0.3407 0.3262-0.5117 0.5992-0.5343 1.393-0.7791 2.01-1.287 0.3595-0.2971 0.7837-0.618 1.127-0.9551 0.0599-0.0599 0.0401-0.2276 0.0938-0.2812 0.1573-0.166 0.1996 0.0626 0.3906-0.0547 0.0762-0.0986 0.1497-0.1977 0.2246-0.2988 0.3258-0.1997 0.6502-0.4013 0.9785-0.6035 0.362-0.3046 0.6722-0.778 1.043-1.08 0.3346-0.2709 0.8096-0.324 1.105-0.6211l0.0937-0.2773c0.1411-0.1386 0.3298-0.0772 0.5059-0.207 0.0612-0.0462 0.0444-0.2349 0.0918-0.2773 0.1685-0.1548 0.5556-0.2045 0.7441-0.373 0.2996-0.2671 0.5357-0.6715 0.8652-0.9199 0.6866-0.5106 1.457-0.8158 2.135-1.361 0.397-0.3221 0.7699-0.7756 1.172-1.098 0.2934-0.2322 0.6205-0.3133 0.9238-0.5293 0.5443-0.3845 1.08-0.8565 1.623-1.229 0.2085-0.0949 0.4158-0.191 0.623-0.2871 0.2721-0.4144 0.5457-0.8304 0.8203-1.246 0.4369-0.4357 0.9045-0.8062 1.348-1.248 0.1835-0.1835 0.2344-0.6584 0.3555-0.7832 0.1074-0.015 0.2163-0.0319 0.3262-0.0469 0.0824-0.0612 0.2576-0.2835 0.3438-0.3809 0.2172-0.2409 0.338-0.7595 0.5976-0.9492 0.1074-0.0137 0.2163-0.0299 0.3262-0.0449 0.166-0.1311 0.2088-0.5 0.3711-0.6523 0.1698-0.156 0.3798-0.1845 0.5508-0.3418 0.4993-0.4569 0.807-1.19 1.299-1.648 0.1336-0.1236 0.3042-0.1312 0.4277-0.2598 0.0974-0.1011 0.0507-0.3213 0.1406-0.4199 0.206-0.2184 0.5206-0.2965 0.7266-0.5 0.1648-0.2459 0.3294-0.4897 0.4941-0.7344 0.5792-0.5904 1.091-1.187 1.674-1.773 0.4856-0.6616 0.9642-1.331 1.447-1.998 0.9737-1.148 1.875-2.272 2.621-3.57 0.4744-0.8239 1.596-1.628 1.986-2.408 0.3857-0.7739 0.4956-1.652 0.8476-2.447 0.8239-1.872 1.828-3.732 2.66-5.629 0.2921-0.6616 0.3505-1.338 0.6426-2.023 1.56-3.657 3.409-7.276 4.957-10.93 0.2172-0.5043 0.0908-1.034 0.2344-1.623 0.1473-0.5992 0.4838-1.349 0.6524-1.961 0.1361-0.4843 0.0659-0.9626 0.1894-1.484 0.0986-0.4182 0.361-0.924 0.4746-1.336 0.2958-1.061 0.3713-2.039 0.6172-3.146 0.689-3.171 1.221-6.565 1.873-9.711 0.1785-0.8613-0.1194-1.716 0.0117-2.721 0.2522-1.947 0.2022-4.295 0.377-6.242-0.0362-0.2596-0.0739-0.5196-0.1113-0.7793 0.0811-0.9487-0.1001-2.207-0.4434-3.135-0.0799-0.724-0.1591-1.439-0.2402-2.158-0.0574-0.4207-0.252-0.9818-0.252-1.299 0-0.7739-0.3506-2.017-0.5254-3.246-0.0512-0.3682-0.1058-0.736-0.1582-1.105 0.0974-1.436-0.5241-4.569-1.037-5.904-0.2884-1.248-0.5749-2.489-0.8633-3.732-0.5867-1.448-1.148-3.071-1.773-4.531-0.3096-0.724-0.3782-1.392-0.6953-2.098-1.473-3.246-2.472-6.715-3.92-9.811-0.6491-1.386-0.9699-2.996-1.736-4.27-0.181-0.2983-0.5296-0.5672-0.7168-0.8281-0.7864-1.111-1.303-2.38-2.146-3.42-1.024-1.261-2.202-2.522-3.195-3.795-0.0924-0.1847-0.1869-0.3726-0.2793-0.5586-0.7739-0.9237-1.674-1.878-2.396-2.846-0.4444-0.5904-0.7605-1.2-1.246-1.748-0.3108-0.3483-0.7625-0.634-1.068-0.9785-0.4806-0.5293-0.8157-1.086-1.299-1.609-0.5243-0.5692-1.294-1.008-1.822-1.598-0.4631-0.5205-0.7784-1.098-1.227-1.623-0.5492-0.6379-1.29-1.186-1.848-1.797-0.6017-0.6491-1.116-1.311-1.736-1.947-0.4993-0.5118-1.293-0.9722-1.922-1.324-0.5455-0.3046-1.119-0.8469-1.572-1.299-0.6366-0.4594-1.282-0.9216-1.922-1.385-1.024-1.024-2.377-1.772-3.383-2.771-0.4219-0.4182-0.9277-0.6783-1.35-1.07-2.422-2.247-5.379-3.883-8.062-5.768-0.4269-0.3008-1.04-0.3045-1.537-0.5117-1.348-0.5742-2.708-1.413-4.068-2.01-0.2734-0.1223-0.5548-0.0975-0.8281-0.2148-0.5193-0.2222-1.137-0.5596-1.697-0.6895l-0.6055-0.04687c-1.049-0.4269-2.181-0.8953-3.246-1.336-1.011-0.4182-2.014-0.6045-3.008-1.035-1.573-0.6866-3.245-1.359-4.918-1.898-0.9986-0.3196-2.101-0.07292-3.221-0.209-0.4144-0.04868-0.9019-0.2069-1.299-0.2793-0.9362-0.1685-1.768-0.0663-2.695-0.2148-2.234-0.357-4.657-0.598-6.979-0.9375-1.847-0.2684-3.844-0.08484-5.691-0.2559zm5.32 13.64c0.0828 0.0028 0.161 0.01747 0.2344 0.05273 0.4182 0.4119 0.2049 1.536 0.4434 2.197 0.2821 0.7739 0.4863 2.5 0.6211 3.434 0.0637 0.4606 0.1316 0.9162 0.1953 1.373 0.5293 1.348 0.367 3.134 0.9062 4.52 0.1822 0.4606 0.1636 1.106 0.3633 1.609 0.7427 1.885 0.842 4.532 0.877 6.654 0.0187 1.036 0.5893 2.246 0.7891 3.682 0.0237 0.01872 0.0493 0.03596 0.0742 0.05469 0.3171-0.1248 1.02-1.434 1.211-1.771 0.0974-0.1623 0.0219-0.376 0.123-0.5508 0.4881-0.8364 0.8995-1.697 1.361-2.559 0.1373-0.2497 0.424-0.4986 0.5488-0.873 0.2621-0.4993 0.3992-1.124 0.6738-1.748 1.261-2.621 3.359-4.744 4.895-7.24 0.2247-0.3745 0.3483-0.7486 0.5606-1.123 0.3246-0.3745 0.6364-0.8736 0.9609-1.248 0.2372-0.4993 0.1888-0.8736 0.5508-1.248 0.1872-0.2497 0.5604-0.2503 0.7227-0.5 0.2871-0.3745 0.4384-0.8734 0.7754-1.123 0.5742-0.6241 0.9733-1.249 1.473-1.873 0.1248-0.1248 0.2482-0.25 0.373-0.25 1.161-0.0699 2.346 0.7185 3.221 1.137 0.2559 0.1236 0.7477 0.1851 0.9199 0.4023 0.0749 0.2097 0.1497 0.4231 0.2246 0.6328 0.2884 0.538 0.6821 1.361 1.115 1.771-0.01 0.6916-0.5606 1.187-0.9688 1.598l-0.5508 0.8086c-0.8988 0.8988-1.702 1.935-2.447 2.947-0.3608 0.4918-0.6113 1.177-1.033 1.609-1.548 1.598-3.109 3.221-4.557 4.906-1.248 1.473-2.409 3.021-3.77 4.395-0.4806 0.4831-0.817 1.167-1.299 1.646-1.049 1.049-1.861 2.198-2.783 3.32-0.4656 0.5742-1.485 1.522-1.672 2.234-0.1573 0.5971 0.0151 1.504 0.0644 2.244 0.0182-0.0012 0.0406-6.29e-4 0.0586-2e-3l-0.041 0.2051c-2e-3 -0.06139-0.0133-0.1387-0.0176-0.2031-0.9954 0.06784-2.381 0.01405-3.361-0.252-0.4494-0.7739-0.1614-1.299-0.5234-2.248-0.5867-1.548-0.4255-3.132-1.1-4.83-0.1024-0.563-0.203-1.124-0.3066-1.686-0.4993-1.273-0.8433-3.085-1.348-4.332-0.0849-0.4344-0.1671-0.8662-0.252-1.297-0.3807-0.8114-0.7611-1.625-1.141-2.436-0.03-0.216-0.0625-0.4344-0.0937-0.6504-0.0437-0.1049-0.2186-0.3329-0.2598-0.4277-0.0749-0.1735 0.0104-0.5383-0.0195-0.5957-0.4831-0.9737-0.8603-2.231-1.336-3.332-0.7415-1.698-1.136-3.457-1.871-5.18-0.1361-0.3246-0.5756-1.535-0.457-1.799 0.0874-0.2921 1.275-0.634 1.748-0.8438 1.248-0.5542 2.697-1.257 4.295-1.143 0.294 0.0206 0.5796-0.0788 0.8281-0.07031zm-32.87 12.75c0.8738 0.1123 1.871 1.71e-4 2.869 0.125 0.6241 0.08738 1.499 0.2122 2.123 0.2871 0.1248-0.02497 0.3752-0.05121 0.5-0.07617 0.749 0.08738 1.497 0.2759 2.246 0.3633 0.1248-0.01248 0.3753-0.02658 0.625-0.03906 0.3745 0.09986 0.623 0.4383 0.623 0.4258 0.8239 0.3957 1.676 0.6205 2.473 1.045 0.2522 0.2085 0.503 0.4146 0.7539 0.623 0.1822 0.04119 0.3634 0.0824 0.5469 0.1211 0.1985 0.1336 0.3226 0.4148 0.541 0.5234 0.2821 0.1386 0.5683 0.137 0.8379 0.2793 0.3271 0.1748 0.5865 0.5366 0.9024 0.7363 0.206 0.1311 0.4781 0.1176 0.6953 0.2324 0.8863 0.4744 1.549 1.395 2.234 2.146 0.2384 0.2621 0.6274 0.3622 0.9394 0.5332 0.3408 0.1872 0.6403 0.5901 0.9199 0.8672 0.3383 0.3295 0.8703 0.4524 1.184 0.8281 0.4369 0.5243 0.5537 1.252 0.9844 1.785 0.4356 0.5455 1.114 0.9705 1.484 1.586 0.2572 0.4257 0.2952 0.711 0.5586 1.119 0.0662 0.1011 0.3998 0.2778 0.4473 0.334 0.1323 0.156 0.1358 0.5272 0.2969 0.6895 0.1848 0.06117 0.3738 0.1244 0.5586 0.1855 0.1211 0.2272 0.2427 0.4545 0.3613 0.6816 0.4606 0.5655 0.9024 1.116 1.373 1.734 0.749 0.9861 1.728 1.935 2.533 2.896 0.4744 0.5617 0.7351 1.206 1.189 1.822 0.3458 0.4631 0.88 0.7956 1.238 1.219 0.5867 0.6866 0.8417 1.577 1.398 2.322 0.146 0.09113 0.2882 0.1809 0.4356 0.2695-0.1548 0.3258 7e-3 0.4456 0.166 0.709 1.173 0.0749 2.723-1.487 3.547-2.16 1.748-1.436 3.557-2.595 5.566-3.844 0.9737-0.5992 1.991-1.372 3.059-1.898 1.061-0.5255 2.293-0.6675 3.357-1.141 3.42-1.548 8.414-3.496 12.86-3.158 0.518-0.0749 1.04-0.1483 1.561-0.2207 0.568 0.04744 1.104 0.1738 1.623 0.2324 0.2871-0.01748 0.5703-0.03596 0.8574-0.05469 1.448 0.206 2.772 0.902 4.107 1.271 0.4631 0.1273 0.8863 0.08095 1.359 0.207 1.061 0.2834 2.161 0.8403 3.221 1.139 0.724 0.2035 1.369 0.3037 2.072 0.5684 0.2247 0.1698 0.4477 0.3347 0.6699 0.502 0.2409 0.09737 0.4388 0.0106 0.6797 0.1055 0.4032 0.1573 0.7837 0.5764 1.172 0.7637 0.2509 0.05243 0.503 0.1045 0.7539 0.1582 0.3508 0.151 0.7318 0.4164 1.08 0.5762 0.2796 0.1298 0.7171 0.08642 0.9668 0.2637 0.2859 0.2035 0.4646 0.5767 0.7168 0.8301 0.4531 0.4531 1.085 0.7375 1.512 1.248 0.342 0.4082 0.469 0.8958 0.791 1.348 1.123 1.585 2.257 3.496 3.258 5.193 0.1523 0.2596 0.0865 0.5198 0.25 0.8281 0.1648 0.3108 0.5948 0.6546 0.8008 0.9492 0.3058 0.4469 0.3818 0.9137 0.6602 1.373 0.9237 1.523 2.027 3.27 2.77 5.055 0.176 1.074 0.3545 2.163 0.5293 3.246-0.0125 0.1498-0.0821 0.4864-0.0371 0.6699 0.2085 0.8613 0.1546 2.439 0.0723 3.32 0.02 0.3071 0.04 0.6128 0.0625 0.9199-0.2572 2.097-0.3868 4.421-0.75 6.418-0.1885 1.049-0.3928 1.987-0.5801 2.945-0.0662 0.342 0.0618 0.6059-0.0742 0.873-0.0762 0.1523-0.3165 0.2478-0.4102 0.3926-0.01 0.0899-0.0181 0.1809-0.0293 0.2695-0.4406 0.6192-1.043 1.183-1.398 1.859-0.1997 0.377-0.2855 0.774-0.5039 1.135l-0.2422 0.1699c-0.1298 0.216-0.1234 0.5278-0.2969 0.7051-0.4868 0.5006-1.24 0.7707-1.824 1.191-0.8364 0.5992-1.621 1.305-2.383 1.936-0.2484 0.2035-0.5786 0.2077-0.877 0.3887-0.3133 0.1897-0.7632 0.6151-1.07 0.8848-0.5642 0.4881-1.077 1.133-1.637 1.621-0.2571 0.2284-0.5901 0.3012-0.8535 0.5234-0.8613 0.724-1.757 1.468-2.609 2.234-0.8863 0.7989-1.691 1.745-2.559 2.559-1.673 1.573-3.507 3.082-5.268 4.543-1.049 0.8663-2.417 1.313-3.633 2.047-1.211 0.7365-2.447 1.569-3.656 2.311 0.0924 0.3171 0.5939 1.255 0.8086 1.484 0.216 0.2322 0.6409 0.2944 0.873 0.5391 0.3233 0.3445 0.4504 0.768 0.7637 1.156 0.4981 0.6117 1.12 1.206 1.598 1.898 0.3433 0.4943 0.4162 0.9802 0.752 1.547 0.2147 0.3645 0.5967 0.7238 0.8164 1.082 0.392 0.6366 0.5566 1.336 0.9473 1.996 0.0762 0.1286 0.3029 0.2341 0.3828 0.3477 0.1111 0.3146 0.2229 0.6322 0.334 0.9492 0.0287 0.0537 0.2069 0.1787 0.2344 0.2324-5e-3 0.1336-7e-3 0.2668-0.0117 0.4004 0.1011 0.2022 0.4428 0.4884 0.5664 0.7168 0.1635 0.3008 0.2852 0.6241 0.3926 0.875 0.0262 0.196 0.0546 0.3919 0.082 0.5879 0.1124 0.2284 0.3909 0.4881 0.502 0.7266 0.1048 0.4307 0.2115 0.857 0.3164 1.285 0.3545 0.8488 0.6744 2.085 0.6582 2.771 0.0674 0.3208 0.1357 0.6435 0.2031 0.9668 0.196 1.323 0.5292 2.793 0.4356 3.994 0.0824 0.5854 0.1632 1.175 0.248 1.762-0.1872 2.01 0.5922 4.655-0.1543 6.402-1.098 2.559-2.185 5.142-3.445 7.602-0.2821 0.5555-0.7374 1.072-1.033 1.611-0.377 0.6866-0.995 2.111-1.498 2.609-0.8239 0.8239-1.907 1.395-2.746 2.184-0.513 0.4731-1.009 0.9733-1.523 1.473-0.3208 0.3121-0.5126 0.8116-0.9121 1.062-0.6491 0.4082-1.48 0.4543-2.209 0.8438-1.211 0.6491-2.46 1.393-3.783 1.936l-2.059 0.4277c-1.348 0.5268-3.284 0.9027-4.682 0.7305-0.4344 0.0412-0.8736 0.0804-1.311 0.1191-1.211-0.1148-2.449-0.0119-3.57-0.2891-0.2534-0.0637-0.6255-0.2748-0.9102-0.3359-0.5592-0.1198-1.026-0.0411-1.561-0.1797-1.098-0.2796-2.233-0.6455-3.32-0.9238-0.6741-0.1735-1.319-0.3035-1.922-0.457-0.2472-0.0337-0.497-0.0625-0.7441-0.0937-0.4544-0.3795-0.9082-0.7592-1.361-1.139-1.286-0.7115-2.342-1.715-3.383-2.77-0.6366-0.6391-1.517-1.07-2.172-1.686-0.2796-0.2621-0.4023-0.6227-0.6582-0.9023-0.5992-0.6616-1.368-1.239-1.936-1.924-0.1223-0.2259-0.2409-0.4525-0.3633-0.6797-1.261-1.535-2.407-3.132-3.607-4.805-0.5542-0.7739-1.285-1.643-1.748-2.473-0.8988-1.598-1.374-3.419-2.309-4.992-0.3258-0.5468-0.6174-1.196-0.9844-1.785-0.2259-0.367-0.6219-0.6757-0.7617-1.156-0.7615-6e-3 -1.615 0.8139-2.148 1.238-1.585 1.261-3.383 2.333-4.943 3.557-0.4194 0.3296-0.9037 0.4444-1.359 0.7266-0.4294 0.2671-0.7742 0.7441-1.184 1.031-0.8114 0.568-1.756 0.7808-2.609 1.299-0.699 0.4207-1.38 1.014-2.197 1.373-0.3707 0.0512-0.7392 0.1051-1.107 0.1562-0.7739 0.3171-1.807 0.3619-2.76 0.7227-0.3907 0.0562-0.7817 0.1118-1.17 0.168-1.648 0.6341-5.343 1.114-6.979 0.9883-1.336 0.1236-2.67 0.2475-4.006 0.3711-0.6092-0.1173-1.143-0.5711-1.648-0.832-0.4406-0.2247-0.9478-0.2614-1.398-0.4648-0.7739-0.3445-1.501-0.894-2.246-1.273-1.411-0.7115-2.91-1.259-4.221-2.121-0.3595-0.2384-0.9283-0.6264-1.199-0.9609-0.0362-0.1074-0.07388-0.2116-0.1113-0.3164-0.08613 0.0125-0.1724 0.0246-0.2598 0.0371-0.2958-0.1298-0.6142-0.5784-0.8477-0.8106-0.3433-0.2397-0.688-0.4784-1.031-0.7168-0.1673-0.1822-0.1912-0.4305-0.3535-0.6152-0.3158-0.3608-0.7693-0.6779-1.08-1.045-0.4244-0.4981-0.7122-1.07-1.15-1.561-1.723-1.922-3.457-3.844-4.594-6.59-0.1298-0.9112-0.2601-1.823-0.3887-2.734-0.2771-0.7739-0.7001-3.396-0.6289-4.432-0.04119-0.2834-0.08044-0.5643-0.1191-0.8477 0.1024-1.186-0.145-2.663 0.1309-3.746 0.4456-1.735 0.6286-3.644 1.105-5.342 0.6117-2.222 1.803-4.17 2.783-6.117 0.3271-0.6491 0.4321-1.402 0.7754-2.035 0.2334-0.4219 0.7577-0.6862 1.117-1.02 0.161-0.1485 0.1898-0.4071 0.3184-0.5781 0.367-0.4981 0.8845-0.8291 1.348-1.26 0.2384-0.2222 0.3131-0.6391 0.5391-0.875 0.2846-0.2958 0.6544-0.4498 0.959-0.7344 0.1298-0.1723 0.2603-0.348 0.3926-0.5215 1.823-1.498 3.771-2.757 5.793-4.143 0.9237-0.6304 1.998-1.021 2.895-1.611 0.4756-0.3158 1.025-0.4218 1.412-0.7988 0.06117-0.2347-0.2633-0.6359-0.3906-0.873-0.4706-0.8738-0.847-1.815-1.361-2.598-2.035-3.071-3.594-6.952-5.504-10.19-0.3483-0.5842-0.5124-1.129-0.8457-1.734-0.7989-1.448-1.61-2.934-2.359-4.457 0.03745-0.6366-0.5402-1.808-0.8086-2.41-0.2696-0.6067-0.3083-1.112-0.5742-1.709-0.231-0.5181-0.5408-1.101-0.7617-1.623-0.06616-0.3008-0.1311-0.6015-0.1973-0.9023-0.2884-0.6741-0.6862-1.419-1.02-2.047-0.2784-0.5268-0.251-1.068-0.502-1.66-0.2509-0.5867-0.5442-1.217-0.7988-1.885-0.3108-0.8114-0.1678-2.022-0.1191-2.709-0.0387-0.2821-0.08115-0.5655-0.1211-0.8477 0.0087-0.1086 0.08253-0.478 0.04883-0.6016-0.2709-1.036 0.06542-2.26 0.2539-3.359 0.02497-0.4431 0.0505-0.8871 0.07422-1.334 0.1498-0.4244 0.5003-0.8752 0.6875-1.287 0.6491-1.498 1.16-3.107 1.734-4.643 0.1373-0.362 0.1502-0.6876 0.3125-1.037 0.5867-1.223 1.759-2.109 2.396-3.27 0.3196-0.5705 0.733-1.319 1.215-1.76-0.01-0.06616-0.01931-0.1311-0.0293-0.1973l0.4824 0.1094c0.5605-0.2022 0.5252-0.8487 0.8984-1.189 0.4868-0.4569 1.073-0.6818 1.635-1.094 0.4119-0.3121 0.8612-0.736 1.311-1.061 3.295-2.272 6.765-4.158 10.88-5.855 0.8738-0.3745 2.122-0.2128 2.996-0.4375 0.9986-0.2372 2.622-0.2729 3.621-0.1855 0.4993-0.03745 0.9987-0.08755 1.498-0.125z" fill="#006b2d" fill-rule="evenodd"/></g></svg>
